<?xml version='1.0' encoding='iso-8859-1'?>
<svg version="1.1" xmlns="http://www.w3.org/2000/svg" viewBox="0 0 512 512" xmlns:xlink="http://www.w3.org/1999/xlink" enable-background="new 0 0 512 512">
  <g>
    <path d="m214.5,235.1c4.4-2.7 6.6-7.35 6.6-14.25 0-7.5-2.9-12.675-8.7-15.175-5-1.7-11.4-2.675-19.1-2.675h-30.3v36h34.4c7,2.84217e-14 12.7-1.2 17.1-3.9z"/>
    <path d="m214.1,268.7c-3.8-1.8-9.3-2.7-16.2-2.7h-34.9v43h34.4c7,0 12.5-0.8 16.4-2.7 7.1-3.6 10.6-10.25 10.6-20.25 0-8.4-3.4-14.15-10.3-17.35z"/>
    <path d="m374,0h-236c-76.2,0-138,61.8-138,138v236c0,76.2 61.8,138 138,138h236c76.2,0 138-61.8 138-138v-236c0-76.2-61.8-138-138-138zm-78,182h65v16h-65v-16zm-44.6,132.3c-3.1,5-6.9,9.3-11.5,12.7-5.2,4-11.3,6.55-18.3,7.95-7,1.5-14.7,2.05-22.9,2.05h-72.7v-162h78c19.7,1 33.7,6.1 42,17.4 5,6.9 7.4,15.15 7.4,24.85 0,9.9-2.5,17.825-7.5,23.925-2.8,3.4-6.9,6.413-12.3,9.213 8.2,3 14.5,7.706 18.7,14.306 4.2,6.5 6.3,14.403 6.3,23.703 5.68434e-14,9.6-2.4,18.203-7.2,25.903zm134.8-31.3h-84.6c0.5,12 4.5,19.7 12.1,24.4 4.6,2.9 10.2,4.35 16.7,4.35 6.9,0 12.5-1.925 16.8-5.525 2.4-1.9 4.4-4.225 6.2-8.225h31c-0.8,7-4.5,14.1-11.2,21.2-10.4,11.3-25,17.1-43.7,17.1-15.5,0-29.1-4.75-40.9-14.25s-17.7-24.975-17.7-46.475c0-20.1 5.3-35.587 16-46.287 10.7-10.8 24.5-16.094 41.5-16.094 10.1,0 19.2,1.803 27.3,5.403 8.1,3.6 14.8,9.302 20,17.202 5,6.8 8.1,14.901 9.5,24.001 0.8,5.299 1.1,13.2 1,23.2z"/>
    <path d="m346.6,244.5c-4.8-4.2-10.8-6.35-18-6.35-7.8,0-13.8,2.275-18.1,6.775-4.3,4.4-7,10.075-8.1,18.075h52.3c-0.6-8-3.3-14.3-8.1-18.5z"/>
  </g>
</svg>
