<?xml version='1.0' encoding='iso-8859-1'?>
<svg version="1.1" xmlns="http://www.w3.org/2000/svg" viewBox="0 0 512 512" xmlns:xlink="http://www.w3.org/1999/xlink" enable-background="new 0 0 512 512">
  <g>
    <path d="M374,0H138C61.8,0,0,61.8,0,138v236c0,76.2,61.8,138,138,138h236c76.2,0,138-61.8,138-138V138C512,61.8,450.2,0,374,0z    M201,353h-44V222h44V353z M178.7,205h-0.3c-14.6,0-24.1-10.35-24.1-22.95c0-12.8,9.8-22.725,24.7-22.725   c14.9,0,24.1,9.988,24.3,22.788C203.3,194.712,193.9,205,178.7,205z M358,353h-44v-69.7c0-17.6-6.3-29.6-22.1-29.6   c-12,0-19.3,8.1-22.4,15.9c-1.1,2.8-1.5,6.7-1.5,10.6V353h-43.4c0,0,0.6-118,0-131H268v19c6-8.9,16.4-21.7,39.6-21.7   c28.6,0,50.4,18.7,50.4,59V353z"/>
  </g>
</svg>
