<?xml version="1.0" encoding="utf-8"?>
<!-- Generator: Adobe Illustrator 22.1.0, SVG Export Plug-In . SVG Version: 6.00 Build 0)  -->
<svg version="1.1" id="Layer_1" xmlns="http://www.w3.org/2000/svg" xmlns:xlink="http://www.w3.org/1999/xlink" x="0px" y="0px"
	 viewBox="0 0 388 388" style="enable-background:new 0 0 388 388;" xml:space="preserve">
<style type="text/css">
	.st0{display:none;}
	.st1{display:none;fill:#FFFFFF;}
</style>
<polygon class="st0" points="323.3,-30 64.7,-30 -64.7,194 64.7,418 323.3,418 452.7,194 "/>
<path class="st1" d="M129.8,88.6H270v0.3l-84.2,168v0.3h78.5v42.2H118v-0.3c48.4-96.7,72.7-145.3,72.7-145.9
	c-0.8,0.3-1.7,0.9-2.8,1.9h-0.7v-0.3l4.8-3.7l3.2-6.6c-2.8,1.7-4.3,2.5-4.5,2.5c0,0.5-2,1.6-6,3.2h-0.3c-0.3,0-0.4-0.2-0.4-0.6
	c0-0.4,0.7-1.1,2.1-2.1c-0.9,0-1.3-0.2-1.3-0.6c1.6-1.6,3.5-2.6,5.7-3.2c0.9,0,1.3,0.1,1.3,0.4c0.8-0.1,1.2-0.2,1.2-0.4l0.4,0.3h0.3
	c2.8-1.9,4.6-4.4,5.4-7.6c0.3,0,1.3-1.9,2.9-5.7h-72.1V88.6z M144.9,159.8h0.3v0.1c0,0.4-0.2,0.6-0.6,0.6h-0.3v-0.3
	C144.4,159.9,144.6,159.8,144.9,159.8z M161.9,142.5h0.9v0.7c-1.1,0.6-3,1.1-5.7,1.6l-0.3-0.6C156.8,144,158.5,143.4,161.9,142.5z
	 M175.3,164.6l0.1,0.4c-0.4,1.4-3.3,3.7-8.8,7c0,0.3-0.5,0.8-1.6,1.5h-1.6c-0.4,0-0.6-0.2-0.6-0.6c2.7-2.4,4.7-4.1,5.9-4.8
	C172,165.8,174.2,164.6,175.3,164.6z M174.4,137.1h0.9v0.4c0,0.4-0.2,0.6-0.6,0.6l-0.6-0.3C174.3,137.5,174.4,137.3,174.4,137.1z
	 M184.3,137.8l0.3,0.6c0,0.4-0.1,0.6-0.4,0.6h-0.6v-0.3C183.6,138.4,183.8,138.1,184.3,137.8z M198.4,136.5c0,0.2-0.4,0.5-1.3,1
	h-0.6C196.5,137.2,197.1,136.9,198.4,136.5z M198.1,132.7h0.3v0.6h-0.7C197.7,132.9,197.8,132.7,198.1,132.7z"/>
<g>
	<g>
		<polygon points="139.5,276.3 139.5,277 154.9,277 269.9,114 269.9,113.5 254.5,113.5 		"/>
	</g>
	<g>
		<polygon points="245.6,113.5 230.2,113.5 115.2,276.3 115.2,277 130.6,277 245.6,114 		"/>
	</g>
	<g>
		<path d="M194,0C86.9,0,0,86.9,0,194s86.9,194,194,194s194-86.9,194-194S301.1,0,194,0z M279,113.3L163.8,276.3v0.7h66.6h24.3H279
			v6.5h-24.3h-24.3h-75.6h-24.3h-24.3v-6.4L221.3,114v-0.5h-63H134h-24.3v-6.6H134h24.3h72.1h24.3H279V113.3z"/>
	</g>
</g>
<polyline class="st1" points="110.3,116 216.3,158 234.3,111 110,112.8 "/>
<polyline class="st1" points="278.7,274 172.7,232 154.7,279 279,277.2 "/>
</svg>
